PathFileType	4	(X/Y/Z)	Run_500 04
DataRate	CameraRate	NumFrames	NumMarkers	Units	OrigDataRate	OrigDataStartFrame	OrigNumFrames
100	100	4	41	mm	100	210	125
Frame#	Time	RASI			RPSI			RTH1			RTH2			RTH3			LTH1			LTH2			LTH3			RTB1			RTB2			RTB3			LTB1			LTB2			LTB3			RCAL			RTOE			RMT5			LCAL			LTOE			LACR			RACR			CLAV			C7			RUA1			RUA2			RUA3			RLEL			RMEL			LUA1			LUA2			LUA3			LLEL			LMEL			RFAsuperior			RFAradius			RFAulna			LFAsuperior			LFAradius			LFAulna			LPSI			LASI		
		X1	Y1	Z1	X2	Y2	Z2	X3	Y3	Z3	X4	Y4	Z4	X5	Y5	Z5	X6	Y6	Z6	X7	Y7	Z7	X8	Y8	Z8	X9	Y9	Z9	X10	Y10	Z10	X11	Y11	Z11	X12	Y12	Z12	X13	Y13	Z13	X14	Y14	Z14	X15	Y15	Z15	X16	Y16	Z16	X17	Y17	Z17	X18	Y18	Z18	X19	Y19	Z19	X20	Y20	Z20	X21	Y21	Z21	X22	Y22	Z22	X23	Y23	Z23	X24	Y24	Z24	X25	Y25	Z25	X26	Y26	Z26	X27	Y27	Z27	X28	Y28	Z28	X29	Y29	Z29	X30	Y30	Z30	X31	Y31	Z31	X32	Y32	Z32	X33	Y33	Z33	X34	Y34	Z34	X35	Y35	Z35	X36	Y36	Z36	X37	Y37	Z37	X38	Y38	Z38	X39	Y39	Z39	X40	Y40	Z40	X41	Y41	Z41	

210	  2.100000	1172.074630	1005.529806	-308.009655	1007.221050	1064.859585	-395.474406	1170.245125	867.848965	-247.548998	1253.005024	813.110405	-264.158024	1269.166318	660.956919	-292.125078	1062.477065	843.736765	-609.721325	1054.139500	703.151330	-558.594129	925.999269	638.279200	-560.998197	1403.332052	434.745949	-365.830045	1384.046198	318.926014	-334.948939	1427.310095	262.678775	-400.916648	719.268640	432.721480	-476.456460	652.458835	429.635713	-525.489256	585.928716	385.493561	-468.029025	1349.820417	119.782969	-416.476147	1564.584931	219.624516	-418.217835	1577.113088	182.070337	-347.472491	449.725817	444.768622	-486.096707	449.184973	224.868385	-394.472930	1236.580526	1550.110402	-557.714913	1160.303454	1519.462601	-245.848641	1233.206016	1462.570301	-367.717370	1129.615872	1554.968655	-424.748514	1039.241179	1466.917059	-184.397672	990.153527	1498.876177	-225.396723	948.083917	1449.577714	-190.182033	867.420732	1413.919572	-186.647384	867.182051	1411.954235	-281.945575	1232.090589	1448.995193	-671.028971	1152.459996	1400.156250	-686.772731	1202.506489	1338.267853	-713.638460	1195.735103	1268.769763	-740.334204	1128.689793	1241.907654	-679.210963	934.794199	1359.982086	-176.230795	1071.034904	1255.425460	-207.974395	1019.610279	1209.535030	-192.744729	1266.573805	1275.236389	-684.949654	1343.825568	1330.188011	-536.125772	1374.166953	1265.209801	-547.220391	1018.545474	1064.160223	-491.009106	1180.269690	980.014948	-552.974970	
211	  2.110000	1171.288814	1006.116061	-307.454591	1005.951874	1062.657263	-397.606389	1168.278277	862.463868	-247.732096	1248.607708	801.152254	-263.139522	1254.773204	648.279496	-290.442270	1065.380930	842.416373	-610.763685	1060.290954	701.083584	-562.012291	934.405253	632.620926	-562.070179	1400.976688	428.207159	-367.947232	1389.201835	312.167520	-337.127924	1436.099268	259.665711	-403.519288	721.660989	437.747116	-478.523166	654.557805	442.479426	-527.016648	584.214726	404.905599	-469.986386	1368.877057	111.424340	-419.081865	1576.382999	225.741496	-421.936221	1591.962920	188.375085	-351.727654	455.309914	478.324293	-487.716204	431.326219	258.966986	-398.503113	1237.820823	1549.642815	-557.148706	1164.286054	1517.184905	-244.847440	1234.956087	1461.099988	-367.943895	1131.893885	1555.555808	-423.152686	1044.089502	1460.996726	-181.071506	992.743574	1492.137575	-219.600482	952.819102	1440.164815	-185.811003	873.617671	1403.296234	-181.858194	872.279667	1401.858198	-277.466019	1229.231903	1449.617720	-671.480842	1149.139626	1402.145562	-686.729856	1198.006395	1339.802845	-716.122408	1189.651809	1270.600588	-742.802585	1121.757733	1244.558534	-681.897773	942.757812	1351.285580	-172.391022	1080.949123	1250.542472	-206.660193	1031.039887	1203.512780	-189.861375	1261.202445	1271.124331	-688.289175	1342.905821	1317.208442	-538.251757	1368.952972	1250.887309	-551.433829	1018.125750	1062.906794	-492.848120	1181.207973	981.512432	-554.481237	
212	  2.120000	1170.837585	1006.669041	-308.043961	1004.784643	1059.362931	-398.990375	1165.697256	855.970493	-248.334273	1242.604598	788.065543	-261.716450	1240.749481	636.240122	-287.761053	1068.120536	840.789164	-612.312790	1065.017254	699.129282	-567.678141	942.127381	627.485509	-564.666214	1396.746724	422.349819	-369.613558	1388.846407	306.458690	-338.797630	1438.106167	256.202428	-405.462544	727.847391	442.155066	-480.963293	661.149837	454.877300	-528.463203	587.778323	423.828886	-471.954365	1376.970051	104.126430	-421.312354	1579.883667	226.889290	-424.637156	1597.368831	189.663808	-354.952259	467.295133	511.027144	-486.845807	420.620002	292.190127	-405.601842	1238.314231	1546.859408	-557.324390	1168.332718	1513.842723	-244.201759	1236.470709	1458.443826	-368.443085	1133.824864	1554.475606	-421.770747	1049.424672	1453.946173	-178.005903	995.862425	1483.462366	-214.128802	958.562920	1429.057809	-180.933279	880.986479	1390.185837	-176.077826	878.028613	1389.129389	-271.608319	1224.529649	1449.007291	-671.057982	1143.963082	1402.948346	-685.667787	1191.586829	1340.100248	-718.279906	1181.507071	1271.131208	-744.764136	1113.144552	1246.591709	-682.876550	951.916426	1340.266157	-167.982736	1091.723938	1243.264927	-205.191827	1043.687364	1195.123162	-186.177397	1253.846596	1264.998410	-691.996666	1341.274790	1300.680546	-541.515272	1362.215061	1233.329582	-557.297148	1017.890183	1060.058112	-494.470889	1182.250935	981.436991	-555.908807	
213	  2.130000	1170.678979	1006.556593	-309.677054	1003.957549	1055.222326	-399.638600	1162.508650	848.705768	-248.722680	1236.376754	774.827626	-259.442448	1229.850172	626.173023	-286.087399	1070.931331	838.598938	-614.129222	1068.823625	696.967807	-573.967570	949.874968	621.814166	-568.512099	1390.640429	415.850912	-371.086155	1383.488450	299.931244	-340.223232	1433.660229	250.277655	-407.115839	737.364476	445.657866	-484.393843	671.728308	466.356162	-530.477385	596.148559	441.433041	-474.459666	1374.074091	 96.091621	-423.562773	1575.656105	222.154227	-426.268776	1593.736282	184.849437	-356.740633	484.385621	541.174993	-484.232641	417.695477	323.488650	-414.357120	1238.205954	1542.307642	-557.808159	1172.175807	1509.357134	-243.612223	1237.870827	1454.450755	-368.982419	1135.416759	1551.553191	-420.519687	1055.107856	1445.673171	-175.050354	999.554562	1472.965348	-208.948870	965.274734	1416.354558	-175.663698	889.499030	1374.767906	-169.422755	884.307240	1373.948964	-264.466507	1218.537716	1447.042798	-670.076682	1137.497654	1402.419251	-684.027193	1183.637860	1339.040515	-720.000757	1171.711938	1270.291926	-746.181791	1103.022170	1247.614171	-682.801629	962.155155	1327.038650	-163.086558	1103.243251	1233.829117	-203.567432	1057.369761	1184.640117	-181.924076	1244.668791	1257.150521	-695.995485	1338.600896	1281.234393	-546.206539	1353.715038	1213.149038	-564.628787	1017.774141	1055.934925	-495.783439	1183.421038	979.936210	-556.776172	
